<?xml version="1.0" standalone="no"?>
<!DOCTYPE svg PUBLIC "-//W3C//DTD SVG 20010904//EN"
 "http://www.w3.org/TR/2001/REC-SVG-20010904/DTD/svg10.dtd">
<svg version="1.0" xmlns="http://www.w3.org/2000/svg"
 width="1416.000000pt" height="696.000000pt" viewBox="0 0 1416.000000 696.000000"
 preserveAspectRatio="xMidYMid meet">

<g transform="translate(0.000000,696.000000) scale(0.100000,-0.100000)"
fill="#000000" stroke="none">
<path d="M7010 4543 c-8 -3 -118 -65 -245 -138 -126 -72 -279 -159 -340 -192
-340 -188 -348 -195 -343 -326 l3 -76 75 46 c140 84 145 87 133 73 -6 -8 -57
-49 -112 -90 l-100 -75 -1 -57 c0 -32 3 -58 6 -58 3 0 90 62 193 138 102 76
193 142 201 146 18 9 -69 -73 -260 -244 l-139 -125 0 -79 -1 -80 93 90 c50 49
170 165 265 259 95 93 178 172 184 174 11 4 -15 -28 -339 -416 l-203 -242 0
-113 1 -113 20 25 c12 13 165 224 341 468 206 284 329 444 342 448 12 3 159 4
328 2 l307 -3 -18 30 c-10 17 -78 134 -152 260 -73 127 -143 240 -156 253 -21
21 -51 27 -83 15z"/>
<path d="M7260 4495 c0 -3 104 -235 230 -516 127 -281 230 -524 230 -539 0
-31 -254 -485 -298 -532 l-26 -28 307 0 c342 0 370 4 381 57 3 15 6 255 8 533
l3 505 -23 37 c-15 24 -46 50 -85 72 l-62 35 -5 -142 -5 -142 -20 155 -20 154
-48 30 c-26 16 -50 27 -52 24 -3 -3 8 -115 24 -249 17 -133 29 -244 27 -246
-3 -3 -21 74 -85 367 l-38 175 -63 37 c-35 21 -66 36 -68 34 -2 -2 38 -162 87
-356 50 -194 91 -357 90 -364 -1 -14 4 -24 -162 427 -74 202 -136 369 -138
371 -2 1 -42 26 -89 54 -82 50 -100 58 -100 47z"/>
<path d="M6670 3565 c0 -9 -11 -20 -24 -26 -26 -12 -44 -45 -39 -70 4 -18 28
-32 86 -49 21 -7 36 -17 34 -23 -5 -18 -52 -20 -66 -4 -14 18 -51 11 -51 -10
0 -7 13 -22 30 -31 16 -9 30 -23 30 -29 0 -7 11 -13 25 -13 14 0 25 6 25 13 0
8 11 19 25 25 29 13 41 52 26 81 -7 11 -31 25 -58 33 -25 7 -48 18 -50 24 -6
17 25 26 47 14 21 -11 50 -3 50 14 0 6 -9 17 -20 24 -11 7 -20 19 -20 27 0 9
-10 15 -25 15 -16 0 -25 -6 -25 -15z"/>
<path d="M7470 3565 c0 -8 -13 -21 -29 -30 -60 -30 -48 -86 22 -106 49 -14 69
-28 61 -40 -8 -14 -46 -10 -64 6 -19 17 -50 10 -50 -12 0 -7 13 -22 30 -31 16
-9 30 -23 30 -29 0 -7 11 -13 25 -13 14 0 25 6 25 13 0 8 11 20 25 27 58 31
38 86 -39 113 -22 7 -41 18 -43 24 -6 16 26 24 47 13 19 -10 50 -4 50 11 0 4
-8 14 -18 21 -10 7 -21 21 -25 31 -8 21 -47 23 -47 2z"/>
<path d="M6880 3445 l0 -105 75 0 c68 0 75 2 75 19 0 17 -8 20 -52 23 -39 2
-53 7 -53 18 0 10 13 16 43 18 34 3 42 7 42 23 0 16 -7 19 -39 19 -43 0 -55 9
-45 34 4 12 20 16 55 16 42 0 49 3 49 20 0 18 -7 20 -75 20 l-75 0 0 -105z"/>
<path d="M7130 3530 c0 -18 7 -20 55 -20 30 0 55 -4 55 -8 0 -5 -27 -34 -60
-65 -34 -33 -60 -66 -60 -77 0 -19 7 -20 101 -20 90 0 100 2 97 18 -2 13 -17
18 -66 22 l-63 5 61 60 c38 38 60 68 60 82 0 22 -3 23 -90 23 -83 0 -90 -1
-90 -20z"/>
<path d="M6414 3385 c-186 -316 -274 -482 -274 -516 0 -45 -1 -44 290 -209
118 -67 242 -139 275 -160 33 -21 123 -75 200 -119 170 -99 192 -102 299 -42
l68 39 -88 47 c-100 54 -152 85 -143 85 3 0 64 -24 135 -54 l129 -54 48 25
c26 15 47 29 47 33 0 4 -103 51 -229 106 -126 54 -227 101 -226 102 2 2 120
-33 263 -78 173 -55 268 -81 283 -76 13 3 47 20 74 38 l50 32 -30 8 c-572 164
-682 197 -635 192 30 -3 219 -34 419 -70 l364 -64 96 57 96 58 -40 8 c-22 4
-278 31 -570 61 -291 29 -539 57 -550 63 -25 14 -298 486 -305 528 -5 29 -6
28 -46 -40z"/>
</g>
</svg>
